# xmcd
#
# Track frame offsets: 
#        150
#        14447
#        30742
#        44767
#        58832
#        71415
#        83495
#        98890
#        113820
#        128520
#        145280
#
# Disc length: 2150 seconds
#
# Revision: 2
# Processed by: cddbd v1.5.2PL0 Copyright (c) Steve Scherf et al.
# Submitted via: ExactAudioCopy v1.0b6
#
DISCID=9308640b
DTITLE=Waldick Soriano - Em Boleros (1998)
DYEAR=1998
DGENRE=Other
TTITLE0=Waldick Soriano - Part. Esp. Cauby Peixoto - Tortura De Amor -
TTITLE0=Part. Esp. Cauby Peixoto
TTITLE1=Depois De Você Mais Ninguém
TTITLE2=Waldick Soriano - Part. Esp. Núbia Lafayette - Eu Vou Ter Semp
TTITLE2=re Você - Part. Esp. Núbia Lafayette
TTITLE3=Paixão De Um Homem
TTITLE4=Waldick Soriano - Part. Esp. Tânia Alves - Quem És Tu - Part. 
TTITLE4=Esp. Tânia Alves
TTITLE5=Perfume De Gardênia
TTITLE6=Waldick Soriano - Part. Esp. Sergio Reis - Jutiça De Deus - Pa
TTITLE6=rt. Esp. Sergio Reis
TTITLE7=Dama De Vermelho
TTITLE8=Quem Eu Quero Não Me Quer - 
TTITLE9=Waldick Soriano - Part. Esp. Falcão - Eu Não Sou Cachorro Não 
TTITLE9=Part. Esp. Falcão
TTITLE10=Waldick Soriano - Part. Esp. Jair Rodrigues - Mensageiro - Pa
TTITLE10=rt. Esp. Jair Rodrigues
EXTD=
EXTT0=
EXTT1=
EXTT2=
EXTT3=
EXTT4=
EXTT5=
EXTT6=
EXTT7=
EXTT8=
EXTT9=
EXTT10=
PLAYORDER=
